# xmcd CD database file
# Copyright (C) 1997 Ti Kan
#
# Track frame offsets:
#  150
#  9340
#  19380
#  32790
#  49155
#  62080
#  69438
#  78820
#  97790
#  109458
#  124515
#  143363
#  153985
#
# Disc length: 2259 seconds
#
# Revision: 1
# Processed by: cddbd v1.4b41PL1 Copyright (c) Steve Scherf et al.
# Submitted via: CDWizzard Release:4.24
#
DISCID=9a08d10d
DTITLE=Texas Rubies, The - Working Girl Blues
DYEAR=1900
DGENRE=
TTITLE0=Tell It to the World
TTITLE1=Come on Home
TTITLE2=Working Girl Blues
TTITLE3=The Way You Break My Heart
TTITLE4=Save You
TTITLE5=Anything in the World
TTITLE6=Texas Jalapenos
TTITLE7=Someone You Used to Love
TTITLE8=Hank Drank
TTITLE9=Not a Love Song
TTITLE10=Sleep Forever
TTITLE11=Get in Line
TTITLE12=Straw Into Gold
EXTD=
EXTT0=
EXTT1=
EXTT2=
EXTT3=
EXTT4=
EXTT5=
EXTT6=
EXTT7=
EXTT8=
EXTT9=
EXTT10=
EXTT11=
EXTT12=
PLAYORDER=
